/* XPM */
static char *result[] = {
/* columns rows colors chars-per-pixel */
"32 32 20 1 ",
"  c #EF5640",
". c #EF5740",
"X c #EF5641",
"o c #EF5741",
"O c #EF5742",
"+ c #F05540",
"@ c #F05541",
"# c #F15541",
"$ c #F25541",
"% c #F05640",
"& c #F05641",
"* c #F05741",
"= c #F25741",
"- c #F15642",
"; c #F05742",
": c #F15742",
"> c #F35842",
", c #F65843",
"< c #F75943",
"1 c None",
/* pixels */
"11111111111111111111111111111111",
"11111111111111;11;11111111111111",
"111111111;;;;;;11;;;;;;111111111",
"111111111111111111111X11+1111111",
"1111111;1&111111111111;111111111",
"111111;;1111111111111111;;111111",
"11111;11111111111111111111;11111",
"1111=;11111111111111111111;1&111",
"11111o11111111111111111111111111",
"1111:1111111111111111111111;1;11",
"11*111111;;1111111111;;11111O;11",
"11,111111;;;11111111;;;111111;11",
"11;1111111;;111;;111;;1111111;11",
"11<1111111;;111;;111;;1111111;11",
"1;11111111;;;1;;;;1;;;1111111%;1",
"1@111111111;;1;;;;1;;11111111111",
"1;111111111;;1;;;;1;;11111111111",
"1;111111111;;;;;;;;;;11111111;;1",
"11;111111111;;;11;;;111111111;11",
"11;111111111;;;11;;;111111111;11",
"11.;11111111;;;11;;;11111111;;11",
"1111;11111111;-111;11111111&1;11",
"11111111111111111111111111111>11",
"111;1;11111111111111111111:1&111",
"1111; 11111111111111111111;;1111",
"111111;111111111111111111;111111",
"11111111;$1111111111111; ;111111",
"1111111;11;1111111111;11;1111111",
"11111111;11;111;;111;11;11111111",
"1111111111111;1111;>111111111111",
"111111111111111;;#11111111111111",
"11111111111111111111111111111111"
};
