/* XPM */
static char *result[] = {
/* columns rows colors chars-per-pixel */
"20 20 12 1 ",
"  c #EF5640",
". c #EF5641",
"X c #F05641",
"o c #F25740",
"O c #F05542",
"+ c #F05742",
"@ c #F15742",
"# c #F25742",
"$ c #F35742",
"% c #F45842",
"& c #F85A44",
"* c None",
/* pixels */
"**********+#********",
"******++X+++O++*****",
"**************.*****",
"****+***********+***",
"********************",
"**+o*************+**",
"******++*****++*****",
"*******+**+**+******",
"*%*****+**+**+*****+",
"**+****+++++++****+*",
"*++****@++*+++*****+",
"********++*++*******",
"**+*****++*++*****+*",
"***+**** ***&****$**",
"**+***************+*",
"*****************+**",
"*****+*********+****",
"*****+*+*****X*+****",
"********************",
"********************"
};
