/* XPM */
static char *wondercoin_64x64[] = {
/* columns rows colors chars-per-pixel */
"64 64 55 1 ",
"  c #EF563E",
". c #EF5540",
"X c #EE5541",
"o c #EF5541",
"O c #EE5640",
"+ c #EF5640",
"@ c #EF5641",
"# c #EF5741",
"$ c #EF5543",
"% c #EE5642",
"& c #EF5642",
"* c #EF5742",
"= c #F05540",
"- c #F05541",
"; c #F15541",
": c #F05640",
"> c #F15640",
", c #F05740",
"< c #F05641",
"1 c #F15641",
"2 c #F05741",
"3 c #F15741",
"4 c #F25741",
"5 c #F35741",
"6 c #F05642",
"7 c #F15642",
"8 c #F05742",
"9 c #F15742",
"0 c #F15643",
"q c #F05743",
"w c #F15743",
"e c #F25642",
"r c #F25742",
"t c #F35742",
"y c #F25743",
"u c #F55742",
"i c #F45743",
"p c #F15841",
"a c #F25841",
"s c #F05842",
"d c #F15842",
"f c #F25842",
"g c #F35842",
"h c #F25843",
"j c #F35843",
"k c #F45842",
"l c #F45843",
"z c #F55843",
"x c #F45943",
"c c #F55943",
"v c #F65943",
"b c #F75A43",
"n c #F85A43",
"m c #F95A44",
"M c None",
/* pixels */
"MMMMMMMMMMMMMMMMMMMMMMMMMMMMMMMMMMMMMMMMMMMMMMMMMMMMMMMMMMMMMMMM",
"MMMMMMMMMMMMMMMMMMMMMMMMMMMMMMMn88MMMMMMMMMMMMMMMMMMMMMMMMMMMMMM",
"MMMMMMMMMMMMMMMMMMMMMMMMMMMMM88lMM888MMMMMMMMMMMMMMMMMMMMMMMMMMM",
"MMMMMMMMMMMMMMMMMMMMMMMMMMM88MMMMMMM88MMMMMMMMMMMMMMMMMMMMMMMMMM",
"MMMMMMMMMMMMMMMMMMMMMMMMMl&*8MMMMMMMM8888MMMMMMMMMMMMMMMMMMMMMMM",
"MMMMMMMMMMMMMMMMMM88888888fff888ml8888u8888ff&8uMMMMMMMMMMMMMMMM",
"MMMMMMMMMMMMMMMMu8MMMM88MMMMMMMM& MMMMMMM8&MMMM88MMMMMMMMMMMMMMM",
"MMMMMMMMMMMMMMMM8MMMM88MMMMMMMMMMMMMMMMMMMffMMMM88MMMMMMMMMMMMMM",
"MMMMMMMMMMMMMMM8MMMM88MMMMMMMMMMMMMMMMMMMMM88lMMM8MMMMMMMMMMMMMM",
"MMMMMMMMMMMMMM88MM88&MMMMMMMMMMMMMMMMMMMMMMMM8f8MM8MMMMMMMMMMMMM",
"MMMMMMMMMMMMMM8888MMMMMMMMMMMMMMMMMMMMMMMMMMMMMl8888MMMMMMMMMMMM",
"MMMMMMMMMMMMM8lMMMMMMMMMMMMMMMMMMMMMMMMMMMMMMMMMMM888MMMMMMMMMMM",
"MMMMMMMMMMMM88MMMMMMMMMMMMMMMMMMMMMMMMMMMMMMMMMMMMMM8&MMMMMMMMMM",
"MMMMMMMMMM888MMMMMMMMMMMMMMMMMMMMMMMMMMMMMMMMMMMMMMM888MMMMMMMMM",
"MMMMMMMMM8l8MMMMMMMMMMMMMMMMMMMMMMMMMMMMMMMMMMMMMMMMM8M&8MMMMMMM",
"MMMMMMMl8MM8MMMMMMMMMMMMMMMMMMMMMMMMMMMMMMMMMMMMMMMMM8MMu8MMMMMM",
"MMMMMMM8MMM8MMMMMMMMMMMMMMMMMMMMMMMMMMMMMMMMMMMMMMMMMM8MMu8MMMMM",
"MMMMMM8MMM8MMMMMMMMMMMMMMMMMMMMMMMMMMMMMMMMMMMMMMMMMMM8MMM8MMMMM",
"MMMMMM8MMM8MMMMMMMMMMMMMMMMMMMMMMMMMMMMMMMMMMMMMMMMMMM88MM8MMMMM",
"MMMMMM8MM8MMMMMMMMMM88MMMMMMMMMMMMMMMMMMMMM8fMMMMMMMMMM8MM88MMMM",
"MMMMMM8M88MMMMMMMMM8888MMMMMMMMMMMMMMMMMMM8888MMMMMMMMM88M88MMMM",
"MMMMMM8&8MMMMMMMMMMu8888MMMMMMMMMMMMMMMMMM8888MMMMMMMMMM88 lMMMM",
"MMMMMM88MMMMMMMMMMM88888MMMMMMMMMMMMMMMMM888*8MMMMMMMMMMM888MMMM",
"MMMMMM8MMMMMMMMMMMM88888MMMMMMMMMMMMMMMMM888&fMMMMMMMMMMMM88MMMM",
"MMMMMl8MMMMMMMMMMMMM8888MMMMMMMM88MMMMMMM&ff&MMMMMMMMMMMMM88MMMM",
"MMMMM88MMMMMMMMMMMMM88888MMMMMM888MMMMMMf&&*fMMMMMMMMMMMMMM88MMM",
"MMMM888MMMMMMMMMMMMM88888MMMMM88888MMMMM*f&f&MMMMMMMMMMMMMM88MMM",
"MMMM8u8MMMMMMMMMMMMMM8888MMMMM88888MMMMM&f*&MMMMMMMMMMMMMM8888MM",
"MMM88M8MMMMMMMMMMMMMM8888uMMMM88888MMMM8888fMMMMMMMMMMMMMM8MM8MM",
"MMM8MM8MMMMMMMMMMMMMMM8888MMM8888888MMM8888&MMMMMMMMMMMMMM8MMluM",
"MM&8MMu8MMMMMMMMMMMMMM8888MMM8888888MMM8888MMMMMMMMMMMMMMM8MMM8M",
"MM88MMM8MMMMMMMMMMMMMM88888Ml88888888MM8888MMMMMMMMMMMMMMM8MMM8M",
"MMn8MMl8MMMMMMMMMMMMMM88888M888888888M88888MMMMMMMMMMMMMMM8MMM8M",
"MMM8MMfMMMMMMMMMMMMMMMM8888M888888888M8888MMMMMMMMMMMMMMMM8MMuuM",
"MMM8MM8MMMMMMMMMMMMMMMM888888888M888888888MMMMMMMMMMMMMMMM8MM8MM",
"MMMM8M8MMMMMMMMMMMMMMMM888888888M888888888MMMMMMMMMMMMMMMM8ff8MM",
"MMMM888MMMMMMMMMMMMMMMMM88888888M88888888MMMMMMMMMMMMMMMMMM88MMM",
"MMMMM88MMMMMMMMMMMMMMMMM8888888MMM8888888MMMMMMMMMMMMMMMMMM88MMM",
"MMMMMf8MMMMMMMMMMMMMMMMM8888888MMM8888888MMMMMMMMMMMMMMMMMM8MMMM",
"MMMMMM8MMMMMMMMMMMMMMMMMM888888MMM8888888MMMMMMMMMMMMMMMMM88MMMM",
"MMMMMM88MMMMMMMMMMMMMMMMM88888MMMMM88888MMMMMMMMMMMMMMMMM888MMMM",
"MMMMMM888MMMMMMMMMMMMMMMM88888MMMMM88888MMMMMMMMMMMMMMMM888lMMMM",
"MMMMMM8M88MMMMMMMMMMMMMMM88888MMMMM8888lMMMMMMMMMMMMMMMM8M8iMMMM",
"MMMMMM8MM8uMMMMMMMMMMMMMMM888MMMMMMMu88MMMMMMMMMMMMMMMM8MM8 MMMM",
"MMMMMMfMMM8MMMMMMMMMMMMMMMMMMMMMMMMMMMMMMMMMMMMMMMMMMMf8MM8MMMMM",
"MMMMMM8MMM8lMMMMMMMMMMMMMMMMMMMMMMMMMMMMMMMMMMMMMMMMMM8MMM8MMMMM",
"MMMMMM&8MMM8MMMMMMMMMMMMMMMMMMMMMMMMMMMMMMMMMMMMMMMMMM8MMM8MMMMM",
"MMMMMMM88MM8MMMMMMMMMMMMMMMMMMMMMMMMMMMMMMMMMMMMMMMMMfuMM8MMMMMM",
"MMMMMMMM88M8MMMMMMMMMMMMMMMMMMMMMMMMMMMMMMMMMMMMMMMMMfM88MMMMMMM",
"MMMMMMMMMM888MMMMMMMMMMMMMMMMMMMMMMMMMMMMMMMMMMMMMMMM&88MMMMMMMM",
"MMMMMMMMMMM88 MMMMMMMMMMMMMMMMMMMMMMMMMMMMMMMMMMMMMM&fMMMMMMMMMM",
"MMMMMMMMMMMMMfflMMMMMMMMMMMMMMMMMMMMMMMMMMMMMMMMMM88fMMMMMMMMMMM",
"MMMMMMMMMMMMM88v888MMMMMMMMMMMMMMMMMMMMMMMMMMMM888&fMMMMMMMMMMMM",
"MMMMMMMMMMMMMM8MMf888MMMMMMMMMMMMMMMMMMMMMMMM888MMfMMMMMMMMMMMMM",
"MMMMMMMMMMMMMMM8MMMMu8MMMMMMMMMMMMMMMMMMMMMM88MMM&fMMMMMMMMMMMMM",
"MMMMMMMMMMMMMMM88MMMM88MMMMMMMMMMMMMMMMMMMM8MMMMM8MMMMMMMMMMMMMM",
"MMMMMMMMMMMMMMMM88MMMM88MMMMMMMMMMMMMMMMM88MMMMM8MMMMMMMMMMMMMMM",
"MMMMMMMMMMMMMMMMM8888888u8MM888888888uM888888888MMMMMMMMMMMMMMMM",
"MMMMMMMMMMMMMMMMMMMMMMM888888MMMMMMMM8888 &MMMMMMMMMMMMMMMMMMMMM",
"MMMMMMMMMMMMMMMMMMMMMMMMMMM888MMMMMM88MMMMMMMMMMMMMMMMMMMMMMMMMM",
"MMMMMMMMMMMMMMMMMMMMMMMMMMMMM88888888MMMMMMMMMMMMMMMMMMMMMMMMMMM",
"MMMMMMMMMMMMMMMMMMMMMMMMMMMMMMMf888MMMMMMMMMMMMMMMMMMMMMMMMMMMMM",
"MMMMMMMMMMMMMMMMMMMMMMMMMMMMMMMMMMMMMMMMMMMMMMMMMMMMMMMMMMMMMMMM",
"MMMMMMMMMMMMMMMMMMMMMMMMMMMMMMMMMMMMMMMMMMMMMMMMMMMMMMMMMMMMMMMM"
};
